<svg width="38" height="37" viewBox="0 0 38 37" fill="none" xmlns="http://www.w3.org/2000/svg">
<path fill-rule="evenodd" clip-rule="evenodd" d="M7.87031 25.3216C7.6221 25.7429 7.34333 26.2317 7.10657 26.6212C6.89465 26.9939 7.00842 27.4745 7.36242 27.7021L12.3268 30.8815C12.501 30.9935 12.7112 31.0279 12.9101 30.9771C13.109 30.9263 13.2799 30.7945 13.3846 30.6113C13.5831 30.2655 13.839 29.8164 14.1178 29.3355C16.0844 25.9575 18.0625 26.3708 21.6292 28.1433L26.5515 30.5795C26.738 30.6718 26.9524 30.6817 27.1459 30.6068C27.3394 30.5319 27.4956 30.3787 27.5788 30.182L29.9426 24.6182C30.1096 24.2208 29.9396 23.7574 29.5607 23.5769C28.522 23.0682 26.4561 22.0548 24.5963 21.1209C17.9059 17.7388 12.2198 17.9574 7.87031 25.3216Z" fill="url(#paint0_linear_1060_40)"/>
<path fill-rule="evenodd" clip-rule="evenodd" d="M30.1297 12.6955C30.3779 12.2742 30.6567 11.7854 30.8934 11.3959C31.1054 11.0232 30.9916 10.5426 30.6376 10.315L25.6732 7.13559C25.4976 7.01245 25.2806 6.97076 25.0743 7.0205C24.8679 7.07023 24.6907 7.20691 24.5849 7.39789C24.3863 7.74365 24.1305 8.19273 23.8517 8.67361C21.8851 12.0517 19.907 11.6384 16.3403 9.86587L11.4332 7.44161C11.2468 7.34926 11.0324 7.3394 10.8388 7.41427C10.6453 7.48914 10.4892 7.64237 10.406 7.83903L8.04217 13.4029C7.87517 13.8003 8.0451 14.2636 8.42404 14.4442C9.46274 14.9529 11.5287 15.9663 13.3884 16.9002C20.0941 20.2783 25.7802 20.0518 30.1297 12.6955Z" fill="url(#paint1_linear_1060_40)"/>
<path d="M37 18.5C37 28.14 28.9664 36 19 36C9.03357 36 1 28.14 1 18.5C1 8.85999 9.03357 1 19 1C28.9664 1 37 8.85999 37 18.5Z" stroke="#007AFF" stroke-width="2"/>
<defs>
<linearGradient id="paint0_linear_1060_40" x1="30.7936" y1="34.05" x2="15.1262" y2="16.0612" gradientUnits="userSpaceOnUse">
<stop offset="0.18" stop-color="#0052CC"/>
<stop offset="1" stop-color="#2684FF"/>
</linearGradient>
<linearGradient id="paint1_linear_1060_40" x1="8.19111" y1="5.49027" x2="14.1428" y2="18.5956" gradientUnits="userSpaceOnUse">
<stop offset="0.18" stop-color="#0052CC"/>
<stop offset="1" stop-color="#2684FF"/>
</linearGradient>
</defs>
</svg>
